# xmcd CD database file
#
# Track frame offsets:
#	182
#	13507
#	26720
#	38945
#	51657
#	64382
#	79395
#	92670
#	105670
#	118857
#	132695
#	147420
#	161720
#	176132
#	188057
#	201820
#	217707
#	232670
#	246757
#	260520
#
# Disc length: 3648 seconds
#
# Revision: 0
# Processed by: cddbd v1.5.2PL0 Copyright (c) Steve Scherf et al.
# Submitted via: CDex 2.23
#
DISCID=280e3e14
DTITLE=Al Bowlly - The Best of Al Bowlly
DYEAR=2000
DGENRE=Jazz
TTITLE0=01 The Very Thought Of You
TTITLE1=02 Love Is The Sweetest Thing
TTITLE2=03 I Found You
TTITLE3=04 Love, You Funny Thing
TTITLE4=05 Got A Date With An Angel
TTITLE5=06 If Anything Happened To You
TTITLE6=07 Night And Day
TTITLE7=08 Ooh! That Kiss
TTITLE8=09 Everything I Have Is Yours
TTITLE9=10 Love In Bloom
TTITLE10=11 You're My Everything
TTITLE11=12 I'd Rather Be A Beggar With You
TTITLE12=13 On The Sentimental Side
TTITLE13=14 I'm Thru With Love
TTITLE14=15 That's Me Without You
TTITLE15=16 Heartaches
TTITLE16=17 Were You Sincere
TTITLE17=18 Happy-Go-Lucky You And Broken Hearted Me
TTITLE18=19 Easy Come, Easy Go
TTITLE19=20 Thanks
EXTD=YEAR: 2000
EXTT0=
EXTT1=
EXTT2=
EXTT3=
EXTT4=
EXTT5=
EXTT6=
EXTT7=
EXTT8=
EXTT9=
EXTT10=
EXTT11=
EXTT12=
EXTT13=
EXTT14=
EXTT15=
EXTT16=
EXTT17=
EXTT18=
EXTT19=
PLAYORDER=
